<svg width="70" height="54" viewBox="0 0 70 54" fill="none" xmlns="http://www.w3.org/2000/svg">
<rect x="22" width="48" height="33" rx="5" fill="#EDEEFF"/>
<mask id="mask0_6958_709" style="mask-type:alpha" maskUnits="userSpaceOnUse" x="0" y="7" width="47" height="47">
<rect y="7" width="46.4297" height="46.4297" fill="#D9D9D9"/>
</mask>
<g mask="url(#mask0_6958_709)">
<path d="M33.1762 44.6758V15.7056C33.8533 15.8668 34.4095 16.2134 34.8447 16.7454C35.28 17.2774 35.4977 17.8981 35.4977 18.6074V41.7739C35.4977 42.4832 35.28 43.1039 34.8447 43.6359C34.4095 44.1679 33.8533 44.5145 33.1762 44.6758ZM12.0894 47.626C11.2833 47.626 10.5981 47.3439 10.0339 46.7796C9.46962 46.2154 9.1875 45.5302 9.1875 44.7241V15.7056C9.1875 14.8995 9.46962 14.2143 10.0339 13.6501C10.5981 13.0858 11.2833 12.8037 12.0894 12.8037H28.9201C29.7262 12.8037 30.4113 13.0858 30.9756 13.6501C31.5398 14.2143 31.822 14.8995 31.822 15.7056V44.7241C31.822 45.5302 31.5398 46.2154 30.9756 46.7796C30.4113 47.3439 29.7262 47.626 28.9201 47.626H12.0894ZM36.8519 41.7739V18.6074C37.271 18.7686 37.6015 19.0185 37.8433 19.3571C38.0851 19.6956 38.2061 20.0906 38.2061 20.542V39.8393C38.2061 40.2907 38.0851 40.6857 37.8433 41.0243C37.6015 41.3628 37.271 41.6127 36.8519 41.7739ZM12.0894 46.2718H28.9201C29.307 46.2718 29.6617 46.1106 29.9841 45.7881C30.3066 45.4657 30.4678 45.111 30.4678 44.7241V15.7056C30.4678 15.3187 30.3066 14.964 29.9841 14.6416C29.6617 14.3191 29.307 14.1579 28.9201 14.1579H12.0894C11.7024 14.1579 11.3478 14.3191 11.0253 14.6416C10.7029 14.964 10.5417 15.3187 10.5417 15.7056V44.7241C10.5417 45.111 10.7029 45.4657 11.0253 45.7881C11.3478 46.1106 11.7024 46.2718 12.0894 46.2718Z" fill="#D81100"/>
</g>
</svg>
