<svg width="64" height="57" viewBox="0 0 64 57" fill="none" xmlns="http://www.w3.org/2000/svg">
<rect x="16" width="48" height="33" rx="5" fill="#EDEEFF"/>
<mask id="mask0_6958_714" style="mask-type:alpha" maskUnits="userSpaceOnUse" x="0" y="10" width="47" height="47">
<rect y="10" width="46.4297" height="46.4297" fill="#D9D9D9"/>
</mask>
<g mask="url(#mask0_6958_714)">
<path d="M10.4 23.6384H35.9847L33.1312 20.2046C32.97 20.0434 32.7846 19.9144 32.575 19.8177C32.3654 19.7209 32.1478 19.6726 31.9221 19.6726H14.4626C14.2369 19.6726 14.0192 19.7209 13.8097 19.8177C13.6001 19.9144 13.4147 20.0434 13.2535 20.2046L10.4 23.6384ZM19.3474 35.1975L23.2165 33.2629L27.0856 35.1975V24.9926H19.3474V35.1975ZM11.2222 48.1107C10.4161 48.1107 9.73094 47.8286 9.16669 47.2644C8.60244 46.7001 8.32031 46.015 8.32031 45.2089V25.041C8.32031 24.6863 8.37674 24.3558 8.48959 24.0495C8.60244 23.7432 8.77171 23.4611 8.99741 23.2031L12.1895 19.3824C12.4474 19.0277 12.7698 18.7617 13.1567 18.5844C13.5437 18.407 13.9628 18.3184 14.4142 18.3184H31.9221C32.3735 18.3184 32.8007 18.407 33.2037 18.5844C33.6068 18.7617 33.9372 19.0277 34.1952 19.3824L37.4356 23.2999C37.6613 23.5578 37.8306 23.848 37.9434 24.1704C38.0563 24.4929 38.1127 24.8314 38.1127 25.1861V29.0069C37.8548 29.0391 37.621 29.0794 37.4114 29.1278C37.2018 29.1761 36.9842 29.2326 36.7585 29.297V24.9926H28.4398V36.7451L28.0046 37.1804L23.2165 34.8106L17.9932 37.4222V24.9926H9.67451V45.2089C9.67451 45.6603 9.8196 46.0311 10.1098 46.3213C10.4 46.6115 10.7708 46.7565 11.2222 46.7565H22.8296V48.1107H11.2222ZM27.666 48.1107V44.3383L37.8709 34.1818C38.0321 34.0206 38.1933 33.9158 38.3545 33.8675C38.5157 33.8191 38.6769 33.7949 38.8382 33.7949C38.9994 33.7949 39.1686 33.8272 39.346 33.8917C39.5233 33.9561 39.6765 34.0529 39.8054 34.1818L41.5949 36.0197C41.7239 36.1809 41.8206 36.3421 41.8851 36.5033C41.9496 36.6645 41.9818 36.8258 41.9818 36.987C41.9818 37.1482 41.9496 37.3094 41.8851 37.4706C41.8206 37.6318 41.7239 37.793 41.5949 37.9542L31.4384 48.1107H27.666ZM29.0202 46.7565H30.8581L37.8225 39.7921L36.9036 38.8732L36.033 37.9059L29.0202 44.9187V46.7565ZM36.9036 38.8732L36.033 37.9059L37.8225 39.7921L36.9036 38.8732Z" fill="#D81100"/>
</g>
</svg>
