<svg width="70" height="57" viewBox="0 0 70 57" fill="none" xmlns="http://www.w3.org/2000/svg">
<rect x="22" width="48" height="33" rx="5" fill="#EDEEFF"/>
<mask id="mask0_6958_719" style="mask-type:alpha" maskUnits="userSpaceOnUse" x="0" y="10" width="47" height="47">
<rect y="10" width="46.4297" height="46.4297" fill="#D9D9D9"/>
</mask>
<g mask="url(#mask0_6958_719)">
<path d="M29.0202 47.9172L17.4128 43.8546L10.1582 46.6597C9.70675 46.8209 9.2876 46.7726 8.90068 46.5146C8.51377 46.2567 8.32031 45.8859 8.32031 45.4022V22.7678C8.32031 22.4453 8.39286 22.1471 8.53795 21.873C8.68304 21.599 8.90068 21.4136 9.19087 21.3168L17.4128 18.5117L29.0202 22.5743L36.2749 19.7692C36.7263 19.608 37.1454 19.6322 37.5323 19.8417C37.9192 20.0513 38.1127 20.3818 38.1127 20.8332V43.8546C38.1127 44.2093 38.016 44.5156 37.8225 44.7735C37.6291 45.0315 37.3711 45.2088 37.0487 45.3055L29.0202 47.9172ZM28.3431 46.2728V23.6383L18.0899 20.0594V42.6938L28.3431 46.2728ZM29.6973 46.2728L36.7585 43.9513V21.0267L29.6973 23.6383V46.2728ZM9.67451 45.4022L16.7357 42.6938V20.0594L9.67451 22.4776V45.4022Z" fill="#D81100"/>
</g>
</svg>
