<svg width="64" height="54" viewBox="0 0 64 54" fill="none" xmlns="http://www.w3.org/2000/svg">
<rect x="16" width="48" height="33" rx="5" fill="#EDEEFF"/>
<mask id="mask0_6897_110" style="mask-type:alpha" maskUnits="userSpaceOnUse" x="0" y="7" width="47" height="47">
<rect y="7" width="46.4297" height="46.4297" fill="#D9D9D9"/>
</mask>
<g mask="url(#mask0_6897_110)">
<path d="M11.6064 43.7568C11.0744 43.7568 10.619 43.5674 10.2402 43.1886C9.8613 42.8097 9.67188 42.3543 9.67188 41.8223C9.67188 41.2903 9.8613 40.8348 10.2402 40.456C10.619 40.0771 11.0744 39.8877 11.6064 39.8877C12.1385 39.8877 12.5939 40.0771 12.9727 40.456C13.3516 40.8348 13.541 41.2903 13.541 41.8223C13.541 42.3543 13.3516 42.8097 12.9727 43.1886C12.5939 43.5674 12.1385 43.7568 11.6064 43.7568ZM11.6064 32.1494C11.0744 32.1494 10.619 31.96 10.2402 31.5811C9.8613 31.2023 9.67188 30.7469 9.67188 30.2148C9.67188 29.6828 9.8613 29.2274 10.2402 28.8486C10.619 28.4697 11.0744 28.2803 11.6064 28.2803C12.1385 28.2803 12.5939 28.4697 12.9727 28.8486C13.3516 29.2274 13.541 29.6828 13.541 30.2148C13.541 30.7469 13.3516 31.2023 12.9727 31.5811C12.5939 31.96 12.1385 32.1494 11.6064 32.1494ZM11.6064 20.542C11.0744 20.542 10.619 20.3526 10.2402 19.9737C9.8613 19.5949 9.67188 19.1394 9.67188 18.6074C9.67188 18.0754 9.8613 17.62 10.2402 17.2411C10.619 16.8623 11.0744 16.6729 11.6064 16.6729C12.1385 16.6729 12.5939 16.8623 12.9727 17.2411C13.3516 17.62 13.541 18.0754 13.541 18.6074C13.541 19.1394 13.3516 19.5949 12.9727 19.9737C12.5939 20.3526 12.1385 20.542 11.6064 20.542ZM23.2139 20.542C22.6819 20.542 22.2264 20.3526 21.8476 19.9737C21.4687 19.5949 21.2793 19.1394 21.2793 18.6074C21.2793 18.0754 21.4687 17.62 21.8476 17.2411C22.2264 16.8623 22.6819 16.6729 23.2139 16.6729C23.7459 16.6729 24.2013 16.8623 24.5802 17.2411C24.959 17.62 25.1484 18.0754 25.1484 18.6074C25.1484 19.1394 24.959 19.5949 24.5802 19.9737C24.2013 20.3526 23.7459 20.542 23.2139 20.542ZM34.8213 20.542C34.2893 20.542 33.8339 20.3526 33.455 19.9737C33.0761 19.5949 32.8867 19.1394 32.8867 18.6074C32.8867 18.0754 33.0761 17.62 33.455 17.2411C33.8339 16.8623 34.2893 16.6729 34.8213 16.6729C35.3533 16.6729 35.8087 16.8623 36.1876 17.2411C36.5664 17.62 36.7559 18.0754 36.7559 18.6074C36.7559 19.1394 36.5664 19.5949 36.1876 19.9737C35.8087 20.3526 35.3533 20.542 34.8213 20.542ZM23.2139 32.1494C22.6819 32.1494 22.2264 31.96 21.8476 31.5811C21.4687 31.2023 21.2793 30.7469 21.2793 30.2148C21.2793 29.6828 21.4687 29.2274 21.8476 28.8486C22.2264 28.4697 22.6819 28.2803 23.2139 28.2803C23.7459 28.2803 24.2013 28.4697 24.5802 28.8486C24.959 29.2274 25.1484 29.6828 25.1484 30.2148C25.1484 30.7469 24.959 31.2023 24.5802 31.5811C24.2013 31.96 23.7459 32.1494 23.2139 32.1494ZM25.7288 43.7568V39.9844L35.9337 29.8279C36.0949 29.6667 36.2543 29.5619 36.412 29.5136C36.5697 29.4652 36.7273 29.441 36.885 29.441C37.0568 29.441 37.2285 29.4733 37.4001 29.5377C37.5719 29.6022 37.728 29.699 37.8682 29.8279L39.6577 31.6658C39.7867 31.827 39.8834 31.9882 39.9479 32.1494C40.0124 32.3106 40.0446 32.4718 40.0446 32.6331C40.0446 32.7943 40.0124 32.9555 39.9479 33.1167C39.8834 33.2779 39.7867 33.4391 39.6577 33.6003L29.5012 43.7568H25.7288ZM27.083 42.4026H28.9208L35.8853 35.4382L34.9664 34.5193L34.0958 33.552L27.083 40.5648V42.4026ZM34.9664 34.5193L34.0958 33.552L35.8853 35.4382L34.9664 34.5193Z" fill="#D81100"/>
</g>
</svg>
