<svg width="218" height="316" viewBox="0 0 218 316" fill="none" xmlns="http://www.w3.org/2000/svg">
<path d="M195.755 229.288C195.755 223.148 200.735 218.171 206.878 218.171C213.02 218.171 218 223.148 218 229.288C218 235.427 213.02 240.405 206.878 240.405C200.735 240.405 195.755 235.427 195.755 229.288Z" fill="white"/>
<path d="M195.755 304.883C195.755 298.743 200.735 293.766 206.878 293.766C213.02 293.766 218 298.743 218 304.883C218 311.023 213.02 316 206.878 316C200.735 316 195.755 311.023 195.755 304.883Z" fill="white"/>
<path d="M97.8772 304.883C97.8772 298.743 102.857 293.766 109 293.766C115.142 293.766 120.122 298.743 120.122 304.883C120.122 311.023 115.142 316 109 316C102.857 316 97.8772 311.023 97.8772 304.883Z" fill="white"/>
<path d="M97.8772 229.288C97.8772 223.148 102.857 218.171 109 218.171C115.142 218.171 120.122 223.148 120.122 229.288C120.122 235.427 115.142 240.405 109 240.405C102.857 240.405 97.8772 235.427 97.8772 229.288Z" fill="white"/>
<path d="M-5.4492e-07 229.288C-5.4492e-07 223.148 4.97969 218.171 11.1225 218.171C17.2652 218.171 22.2449 223.148 22.2449 229.288C22.2449 235.427 17.2652 240.405 11.1225 240.405C4.97969 240.405 -5.4492e-07 235.427 -5.4492e-07 229.288Z" fill="white"/>
<path d="M195.755 162.586C195.755 156.446 200.735 151.469 206.878 151.469C213.02 151.469 218 156.446 218 162.586C218 168.725 213.02 173.703 206.878 173.703C200.735 173.703 195.755 168.725 195.755 162.586Z" fill="white"/>
<path d="M195.755 86.9904C195.755 80.8506 200.735 75.8734 206.878 75.8734C213.02 75.8734 218 80.8506 218 86.9904C218 93.1301 213.02 98.1074 206.878 98.1074C200.735 98.1074 195.755 93.1301 195.755 86.9904Z" fill="white"/>
<path d="M195.755 11.117C195.755 4.97727 200.735 9.43422e-06 206.878 9.43422e-06C213.02 9.43422e-06 218 4.97727 218 11.117C218 17.2567 213.02 22.234 206.878 22.234C200.735 22.234 195.755 17.2567 195.755 11.117Z" fill="white"/>
<path d="M97.8772 86.9904C97.8772 80.8506 102.857 75.8734 109 75.8734C115.142 75.8734 120.122 80.8506 120.122 86.9904C120.122 93.1301 115.142 98.1074 109 98.1074C102.857 98.1074 97.8772 93.1301 97.8772 86.9904Z" fill="white"/>
<path d="M97.8767 11.117C97.8767 4.97727 102.856 9.43422e-06 108.999 9.43422e-06C115.142 9.43422e-06 120.122 4.97727 120.122 11.117C120.122 17.2567 115.142 22.234 108.999 22.234C102.856 22.234 97.8767 17.2567 97.8767 11.117Z" fill="white"/>
<path d="M-5.4492e-07 86.9904C-5.4492e-07 80.8506 4.97969 75.8734 11.1225 75.8734C17.2652 75.8734 22.2449 80.8506 22.2449 86.9904C22.2449 93.1301 17.2652 98.1074 11.1225 98.1074C4.97969 98.1074 -5.4492e-07 93.1301 -5.4492e-07 86.9904Z" fill="white"/>
<path d="M97.8772 162.586C97.8772 156.446 102.857 151.469 109 151.469C115.142 151.469 120.122 156.446 120.122 162.586C120.122 168.725 115.142 173.703 109 173.703C102.857 173.703 97.8772 168.725 97.8772 162.586Z" fill="white"/>
<path d="M-5.4492e-07 162.586C-5.4492e-07 156.446 4.97969 151.469 11.1225 151.469C17.2652 151.469 22.2449 156.446 22.2449 162.586C22.2449 168.725 17.2652 173.703 11.1225 173.703C4.97969 173.703 -5.4492e-07 168.725 -5.4492e-07 162.586Z" fill="white"/>
</svg>
