<svg width="67" height="54" viewBox="0 0 67 54" fill="none" xmlns="http://www.w3.org/2000/svg">
<rect x="19" width="48" height="33" rx="5" fill="#EDEEFF"/>
<mask id="mask0_6897_105" style="mask-type:alpha" maskUnits="userSpaceOnUse" x="0" y="7" width="47" height="47">
<rect y="7" width="46.4297" height="46.4297" fill="#D9D9D9"/>
</mask>
<g mask="url(#mask0_6897_105)">
<path d="M27.5809 45.1107C26.5091 45.1107 25.5944 44.7358 24.8367 43.9858C24.079 43.2355 23.7001 42.3246 23.7001 41.2532C23.7001 40.1815 24.0751 39.2667 24.8251 38.509C25.5754 37.7513 26.4862 37.3725 27.5577 37.3725C28.6294 37.3725 29.5442 37.7474 30.3019 38.4974C31.0596 39.2477 31.4384 40.1586 31.4384 41.23C31.4384 42.3017 31.0634 43.2165 30.3135 43.9742C29.5632 44.7319 28.6523 45.1107 27.5809 45.1107ZM27.5693 43.7565C28.2464 43.7565 28.8348 43.5067 29.3346 43.0069C29.8343 42.5071 30.0842 41.9187 30.0842 41.2416C30.0842 40.5645 29.8343 39.9761 29.3346 39.4763C28.8348 38.9765 28.2464 38.7267 27.5693 38.7267C26.8922 38.7267 26.3038 38.9765 25.804 39.4763C25.3042 39.9761 25.0543 40.5645 25.0543 41.2416C25.0543 41.9187 25.3042 42.5071 25.804 43.0069C26.3038 43.5067 26.8922 43.7565 27.5693 43.7565ZM31.9221 31.5688C29.6328 31.5688 27.7063 30.7869 26.1425 29.2231C24.5788 27.6593 23.7969 25.7328 23.7969 23.4436C23.7969 21.1543 24.5788 19.2278 26.1425 17.664C27.7063 16.1002 29.6328 15.3184 31.9221 15.3184C34.2113 15.3184 36.1378 16.1002 37.7016 17.664C39.2654 19.2278 40.0473 21.1543 40.0473 23.4436C40.0473 25.7328 39.2654 27.6593 37.7016 29.2231C36.1378 30.7869 34.2113 31.5688 31.9221 31.5688ZM31.9221 30.2146C33.8244 30.2146 35.4285 29.5616 36.7343 28.2558C38.0401 26.95 38.6931 25.3459 38.6931 23.4436C38.6931 21.5412 38.0401 19.9371 36.7343 18.6313C35.4285 17.3255 33.8244 16.6726 31.9221 16.6726C30.0197 16.6726 28.4157 17.3255 27.1098 18.6313C25.804 19.9371 25.1511 21.5412 25.1511 23.4436C25.1511 25.3459 25.804 26.95 27.1098 28.2558C28.4157 29.5616 30.0197 30.2146 31.9221 30.2146ZM14.124 39.8874C12.528 39.8874 11.1617 39.3191 10.0252 38.1826C8.88859 37.046 8.32031 35.6797 8.32031 34.0837C8.32031 32.4877 8.88859 31.1214 10.0252 29.9848C11.1617 28.8483 12.528 28.28 14.124 28.28C15.72 28.28 17.0863 28.8483 18.2229 29.9848C19.3595 31.1214 19.9277 32.4877 19.9277 34.0837C19.9277 35.6797 19.3595 37.046 18.2229 38.1826C17.0863 39.3191 15.72 39.8874 14.124 39.8874ZM14.126 38.5332C15.3499 38.5332 16.3971 38.0973 17.2677 37.2254C18.1383 36.3539 18.5735 35.306 18.5735 34.0818C18.5735 32.8578 18.1376 31.8106 17.2658 30.94C16.3942 30.0695 15.3463 29.6342 14.1221 29.6342C12.8981 29.6342 11.8509 30.0701 10.9803 30.9419C10.1098 31.8135 9.67451 32.8614 9.67451 34.0856C9.67451 35.3096 10.1104 36.3568 10.9823 37.2274C11.8538 38.0979 12.9017 38.5332 14.126 38.5332Z" fill="#D81100"/>
</g>
</svg>
